<?xml version="1.0" encoding="utf-8"?>
<!-- Generator: Adobe Illustrator 19.0.0, SVG Export Plug-In . SVG Version: 6.00 Build 0)  -->
<!DOCTYPE svg PUBLIC "-//W3C//DTD SVG 1.1//EN" "http://www.w3.org/Graphics/SVG/1.1/DTD/svg11.dtd">
<svg version="1.1" id="Layer_1" xmlns="http://www.w3.org/2000/svg" xmlns:xlink="http://www.w3.org/1999/xlink" x="0px" y="0px"
	 viewBox="0 0 215.1 74.8" enable-background="new 0 0 215.1 74.8" xml:space="preserve">
<g id="XMLID_3_">
	<g id="XMLID_13_">
		<path id="XMLID_18_" fill="#FFFFFF" d="M33.8,73.5C5,63.9,3.7,32.4,3.7,32.1V2.6c0-0.6,0.4-0.9,0.9-0.9h58.5
			c0.4,0,0.9,0.3,0.9,0.9v29.5C64,32.4,62.7,63.9,33.8,73.5z"/>
		<g id="XMLID_14_">
			<path id="XMLID_15_" fill="#1D1D1B" d="M63.2,2.5l0,29.6c0,2.4-0.9,10.5-5.1,19C52.8,61.8,44.6,69,33.8,72.8
				C23,69,14.8,61.8,9.6,51.1c-4.2-8.5-5.1-16.6-5.1-19l0-29.6l29.4,0 M63.1,1c-0.7,0-29.3,0-29.3,0S5.3,1,4.5,1
				C3.6,1,2.9,1.7,2.9,2.6c0,6.3,0,25.2,0,29.5c0,5.1,3.8,33.3,30.9,42.2c27.1-8.9,30.9-37.1,30.9-42.2c0-4.2,0-23.2,0-29.5
				C64.7,1.7,64,1,63.1,1L63.1,1z"/>
		</g>
	</g>
	<polygon id="XMLID_12_" fill="#CD1F3B" points="47.7,23.2 51.8,19.9 46.5,19.9 44.9,15.1 44.8,14.9 44.8,14.9 44.8,14.9 44.7,15.1 
		43.1,19.9 37.1,19.9 41.8,23.5 40,28.7 44.8,25.7 49.6,28.7 	"/>
	<polygon id="XMLID_11_" fill="#CD1F3B" points="37.2,38.9 41.4,35.6 36.1,35.6 34.4,30.8 34.4,30.6 34.4,30.6 34.4,30.6 34.3,30.8 
		32.6,35.6 26.7,35.6 31.4,39.2 29.6,44.5 34.4,41.4 39.1,44.5 	"/>
	<path id="XMLID_10_" fill="#1D1D1B" d="M55.1,42.8h-0.2v-0.3h0c0-0.5-0.4-1-1-1c-0.5,0-1,0.4-1,1c0,0,0,0,0,0V43h-2.1l0.1-2.2h0.2
		c0,0,0,0,0,0c0.5,0,1-0.4,1-1c0-0.5-0.4-1-1-1v0h-0.3v-0.2c0-0.6-0.5-1-1.1-1c-0.6,0-1,0.5-1,1v0.2h-0.3v0c-0.5,0-1,0.4-1,1
		c0,0.5,0.4,1,1,1c0,0,0,0,0,0h0.2l0.2,2.2h-2.1v0h0v-0.4c0,0,0,0,0,0c0-0.5-0.4-1-1-1c-0.5,0-1,0.4-1,1h0v0.3h-0.2
		c-0.6,0-1,0.5-1,1c0,0.6,0.5,1,1,1h0.2v0.3h0c0,0.5,0.5,1,1,1c0.5,0,1-0.4,1-1c0,0,0,0,0,0v-0.4h0v0h2.2l0.9,11.9l0.8-11.9h2.2v0.4
		c0,0,0,0,0,0c0,0.5,0.4,1,1,1c0.5,0,1-0.4,1-1h0v-0.3h0.2c0.6,0,1-0.5,1-1C56.2,43.3,55.7,42.8,55.1,42.8"/>
	<path id="XMLID_9_" fill="#1D1D1B" d="M39.5,51.8h-0.2v-0.3h0c0-0.5-0.4-1-1-1c-0.5,0-1,0.4-1,1c0,0,0,0,0,0v0.4h-2.1l0.1-2.2h0.2
		c0,0,0,0,0,0c0.5,0,1-0.4,1-1c0-0.5-0.4-1-1-1v0h-0.3v-0.2c0-0.6-0.5-1-1.1-1c-0.6,0-1,0.5-1,1v0.2H33v0c-0.5,0-1,0.4-1,1
		c0,0.5,0.4,1,1,1c0,0,0,0,0,0h0.2l0.2,2.2h-2.1v0h0v-0.4c0,0,0,0,0,0c0-0.5-0.4-1-1-1c-0.5,0-1,0.4-1,1h0v0.3h-0.2
		c-0.6,0-1,0.5-1,1c0,0.6,0.5,1,1,1v0h0.2v0.3h0c0,0.5,0.5,1,1,1c0.5,0,1-0.4,1-1c0,0,0,0,0,0v-0.4h0v0h2.2l0.9,11.9l0.8-11.9h2.2
		v0.4c0,0,0,0,0,0c0,0.5,0.4,1,1,1c0.5,0,1-0.4,1-1h0v-0.3h0.2v0c0.6,0,1-0.5,1-1C40.6,52.3,40.1,51.8,39.5,51.8"/>
	<path id="XMLID_8_" fill="#1D1D1B" d="M39.5,10.8L39.5,10.8h-0.2v-0.3h0c0-0.5-0.4-1-1-1c-0.5,0-1,0.4-1,1c0,0,0,0,0,0v0.4h-2.1
		l0.1-2.2h0.2c0,0,0,0,0,0c0.5,0,1-0.4,1-1c0-0.5-0.4-1-1-1v0h-0.3V6.6c0-0.6-0.5-1-1.1-1c-0.6,0-1,0.5-1,1v0.2H33v0
		c-0.5,0-1,0.4-1,1c0,0.5,0.4,1,1,1c0,0,0,0,0,0h0.2l0.2,2.2h-2.1v0h0v-0.4c0,0,0,0,0,0c0-0.5-0.4-1-1-1c-0.5,0-1,0.4-1,1h0v0.3
		h-0.2c-0.6,0-1,0.5-1,1c0,0.6,0.5,1,1,1v0h0.2v0.3h0c0,0.5,0.5,1,1,1c0.5,0,1-0.4,1-1c0,0,0,0,0,0v-0.4h0v0h2.2l0.9,11.9l0.8-11.9
		h2.2v0.4c0,0,0,0,0,0c0,0.5,0.4,1,1,1c0.5,0,1-0.4,1-1h0v-0.3h0.2v0c0.6,0,1-0.5,1-1C40.6,11.2,40.1,10.8,39.5,10.8"/>
	<path id="XMLID_7_" fill="#1D1D1B" d="M60.3,10.8L60.3,10.8h-0.2v-0.3h0c0-0.5-0.4-1-1-1c-0.5,0-1,0.4-1,1c0,0,0,0,0,0v0.4H56
		l0.1-2.2h0.2c0,0,0,0,0,0c0.5,0,1-0.4,1-1c0-0.5-0.4-1-1-1v0h-0.3V6.6h0c0-0.6-0.5-1-1-1c-0.6,0-1,0.5-1,1v0.2h-0.3v0
		c-0.5,0-1,0.4-1,1c0,0.5,0.4,1,1,1c0,0,0,0,0,0H54l0.2,2.2h-2.1v0h0v-0.4c0,0,0,0,0,0c0-0.5-0.4-1-1-1c-0.5,0-1,0.4-1,1h0v0.3h-0.2
		c-0.6,0-1,0.5-1,1c0,0.6,0.5,1,1,1v0h0.2v0.3h0c0,0.5,0.5,1,1,1c0.5,0,1-0.4,1-1c0,0,0,0,0,0v-0.4h0v0h2.2l0.9,11.9l0.8-11.9h2.2
		v0.4c0,0,0,0,0,0c0,0.5,0.4,1,1,1c0.5,0,1-0.4,1-1h0v-0.3h0.2v0c0.6,0,1-0.5,1-1C61.4,11.2,60.9,10.8,60.3,10.8"/>
	<polygon id="XMLID_6_" fill="#CD1F3B" points="26.9,23.5 31.6,19.9 25.7,19.9 24,15 23.9,14.9 23.9,14.9 23.9,14.9 23.9,15 
		22.2,19.9 16.9,19.9 21.1,23.2 19.2,28.7 23.9,25.7 28.7,28.7 	"/>
	<path id="XMLID_5_" fill="#1D1D1B" d="M24.1,42.8h-0.2v-0.3h0c0-0.5-0.4-1-1-1c-0.5,0-1,0.4-1,1c0,0,0,0,0,0V43h0v0h-2.1l0.2-2.2
		h0.2c0,0,0,0,0,0c0.5,0,1-0.4,1-1c0-0.5-0.4-1-1-1v0h-0.3v-0.2c0-0.6-0.5-1-1-1s-1,0.5-1,1h0v0.2h-0.3v0c-0.5,0-1,0.4-1,1
		c0,0.5,0.4,1,1,1c0,0,0,0,0,0h0.2l0.1,2.2h-2.1v-0.4c0,0,0,0,0,0c0-0.5-0.4-1-1-1c-0.5,0-1,0.4-1,1h0v0.3h-0.2c-0.6,0-1,0.5-1,1
		c0,0.6,0.5,1,1,1h0.2v0.3h0c0,0.5,0.5,1,1,1c0.5,0,1-0.4,1-1c0,0,0,0,0,0v-0.4H18l0.8,11.9l0.9-11.9h2.2v0h0v0.4c0,0,0,0,0,0
		c0,0.5,0.4,1,1,1c0.5,0,1-0.4,1-1h0v-0.3h0.2c0.6,0,1-0.5,1-1C25.1,43.3,24.7,42.8,24.1,42.8"/>
	<path id="XMLID_4_" fill="#1D1D1B" d="M18.8,10.8L18.8,10.8h-0.2v-0.3h0c0-0.5-0.4-1-1-1c-0.5,0-1,0.4-1,1c0,0,0,0,0,0v0.4h0v0
		h-2.1l0.2-2.2h0.2c0,0,0,0,0,0c0.5,0,1-0.4,1-1c0-0.5-0.4-1-1-1v0h-0.3V6.6c0-0.6-0.5-1-1-1s-1,0.5-1,1v0.2h-0.3v0
		c-0.5,0-1,0.4-1,1c0,0.5,0.4,1,1,1c0,0,0,0,0,0h0.2l0.1,2.2h-2.1v-0.4c0,0,0,0,0,0c0-0.5-0.4-1-1-1c-0.5,0-1,0.4-1,1h0v0.3H8.4
		c-0.6,0-1,0.5-1,1c0,0.6,0.5,1,1,1v0h0.2v0.3h0c0,0.5,0.5,1,1,1c0.5,0,1-0.4,1-1c0,0,0,0,0,0v-0.4h2.2l0.8,11.9l0.9-11.9h2.2v0h0
		v0.4c0,0,0,0,0,0c0,0.5,0.4,1,1,1c0.5,0,1-0.4,1-1h0v-0.3h0.2v0c0.6,0,1-0.5,1-1C19.9,11.2,19.4,10.8,18.8,10.8"/>
</g>
<g id="XMLID_2_">
	<path id="XMLID_58_" fill="#FFFFFF" d="M80.6,29.7c0.2,0.2,0.4,0.4,0.7,0.6c0.3,0.2,0.7,0.5,1.1,0.7c0.5,0.2,1,0.4,1.6,0.6
		s1.3,0.2,2,0.2c0.9,0,1.7-0.1,2.4-0.4c0.6-0.3,1.1-0.6,1.5-1c0.4-0.4,0.6-0.9,0.8-1.4c0.1-0.5,0.2-1,0.2-1.5c0-0.7-0.1-1.3-0.3-1.8
		s-0.5-0.9-0.8-1.3c-0.4-0.4-0.8-0.7-1.4-0.9c-0.6-0.3-1.2-0.5-2-0.7c-0.8-0.3-1.6-0.5-2.3-0.8c-0.7-0.3-1.4-0.7-1.9-1.1
		c-0.6-0.4-1-1-1.3-1.6c-0.3-0.6-0.5-1.4-0.5-2.3c0-0.9,0.2-1.7,0.5-2.4s0.8-1.3,1.3-1.7c0.6-0.5,1.2-0.8,2-1.1s1.7-0.4,2.6-0.4
		c0.7,0,1.4,0.1,1.9,0.2c0.6,0.1,1.1,0.3,1.5,0.4c0.4,0.2,0.8,0.3,1,0.5c0.3,0.2,0.5,0.3,0.6,0.4c0.3,0.2,0.4,0.5,0.4,0.8
		c0,0.3-0.2,0.6-0.6,1.1h-0.3c-0.1-0.1-0.3-0.3-0.6-0.5c-0.3-0.2-0.6-0.4-0.9-0.6c-0.4-0.2-0.8-0.4-1.3-0.5
		c-0.5-0.1-1.1-0.2-1.8-0.2c-0.9,0-1.6,0.1-2.1,0.3c-0.6,0.2-1,0.5-1.4,0.9s-0.6,0.8-0.7,1.2c-0.1,0.5-0.2,0.9-0.2,1.4
		c0,0.6,0.1,1.1,0.3,1.6c0.2,0.4,0.5,0.8,0.9,1.2s0.9,0.6,1.5,0.9c0.6,0.3,1.3,0.5,2.1,0.7c0.8,0.2,1.5,0.5,2.2,0.8
		c0.7,0.3,1.3,0.7,1.8,1.2c0.5,0.5,0.9,1,1.2,1.7c0.3,0.7,0.4,1.4,0.4,2.4c0,1-0.2,1.9-0.5,2.6c-0.3,0.8-0.8,1.4-1.4,1.9
		c-0.6,0.5-1.3,0.9-2.2,1.2c-0.8,0.3-1.8,0.4-2.8,0.4c-0.8,0-1.6-0.1-2.2-0.2c-0.7-0.1-1.2-0.3-1.7-0.5c-0.5-0.2-0.9-0.4-1.1-0.6
		c-0.3-0.2-0.5-0.4-0.6-0.5c-0.1-0.1-0.2-0.2-0.3-0.3c-0.1-0.1-0.1-0.3-0.1-0.4C79.9,30.7,80.1,30.2,80.6,29.7z"/>
	<path id="XMLID_60_" fill="#FFFFFF" d="M109.4,25.7c0,1-0.1,2-0.4,2.9c-0.2,0.9-0.6,1.8-1.2,2.5c-0.5,0.7-1.2,1.3-2.1,1.7
		c-0.9,0.4-1.9,0.6-3.1,0.6c-1.2,0-2.2-0.2-3.1-0.6c-0.9-0.4-1.5-1-2.1-1.7c-0.5-0.7-0.9-1.5-1.2-2.4c-0.2-0.9-0.4-1.9-0.4-2.9
		c0-1,0.1-2,0.4-3c0.3-0.9,0.7-1.8,1.3-2.5c0.6-0.7,1.3-1.3,2.1-1.7c0.9-0.4,1.8-0.6,3-0.6c1.2,0,2.2,0.2,3.1,0.6
		c0.8,0.4,1.5,1,2,1.7c0.5,0.7,0.9,1.5,1.1,2.5C109.3,23.7,109.4,24.7,109.4,25.7z M107.5,25.7c0-0.7-0.1-1.4-0.2-2.2
		c-0.1-0.7-0.4-1.4-0.7-2c-0.3-0.6-0.8-1.1-1.5-1.4c-0.6-0.4-1.4-0.6-2.4-0.6c-0.9,0-1.7,0.2-2.3,0.6c-0.6,0.4-1.1,0.8-1.5,1.4
		c-0.4,0.6-0.6,1.3-0.8,2c-0.2,0.7-0.2,1.5-0.2,2.2c0,0.7,0.1,1.5,0.2,2.2c0.1,0.7,0.4,1.4,0.7,2c0.4,0.6,0.8,1.1,1.5,1.5
		c0.6,0.4,1.4,0.6,2.4,0.6c1,0,1.8-0.2,2.4-0.6c0.6-0.4,1.1-0.9,1.5-1.5c0.4-0.6,0.6-1.3,0.7-2C107.4,27.2,107.5,26.5,107.5,25.7z"
		/>
	<path id="XMLID_63_" fill="#FFFFFF" d="M115.4,20c0.5-0.5,1.1-1,1.9-1.4s1.8-0.6,3-0.6c1.1,0,2,0.2,2.7,0.6
		c0.7,0.4,1.2,0.9,1.5,1.5c0.5-0.5,1.2-1,2-1.4c0.8-0.4,1.8-0.6,3.1-0.6c0.8,0,1.4,0.1,1.9,0.3c0.5,0.2,1,0.4,1.4,0.7
		c0.4,0.3,0.7,0.7,0.9,1c0.2,0.4,0.4,0.8,0.4,1.2c0.1,0.4,0.2,0.9,0.2,1.4c0,0.5,0,1,0,1.4v9h-1.8v-9c0-0.4,0-0.8-0.1-1.3
		c0-0.4-0.1-0.8-0.2-1.1c-0.2-0.7-0.6-1.2-1.1-1.5c-0.5-0.3-1.3-0.5-2.3-0.5c-0.9,0-1.6,0.2-2.4,0.6c-0.7,0.4-1.2,0.8-1.6,1.2
		c0.1,0.4,0.2,0.8,0.2,1.3c0,0.4,0,0.9,0,1.3v9h-1.8v-9c0-0.4,0-0.8-0.1-1.3c0-0.4-0.1-0.8-0.2-1.1c-0.2-0.7-0.6-1.2-1.1-1.5
		c-0.5-0.3-1.3-0.5-2.3-0.5c-0.9,0-1.7,0.2-2.4,0.5c-0.7,0.3-1.2,0.7-1.6,1.2c-0.2,0.2-0.3,0.5-0.3,0.8V33h-1.8V18.3h0.1
		c0.4,0,0.8,0.1,1.2,0.3C115.3,18.9,115.4,19.3,115.4,20z"/>
	<path id="XMLID_65_" fill="#FFFFFF" d="M150.7,31.2c0,0.2-0.1,0.4-0.4,0.7c-0.2,0.3-0.6,0.5-1,0.7c-0.4,0.2-1,0.4-1.6,0.6
		s-1.3,0.3-2.1,0.3c-1,0-1.9-0.1-2.8-0.4c-0.9-0.3-1.6-0.8-2.2-1.4c-0.6-0.6-1.1-1.5-1.4-2.5c-0.3-1-0.5-2.2-0.5-3.6
		c0-1.3,0.2-2.5,0.6-3.4c0.4-1,0.9-1.7,1.5-2.4c0.6-0.6,1.3-1.1,2.1-1.4c0.8-0.3,1.6-0.4,2.4-0.4c1,0,1.9,0.2,2.7,0.5
		c0.7,0.4,1.3,0.8,1.8,1.4c0.5,0.6,0.8,1.3,1,2c0.2,0.8,0.3,1.6,0.3,2.4c0,0.5,0,1-0.1,1.6h-10.3c0,0.9,0.1,1.7,0.3,2.4
		c0.2,0.7,0.5,1.4,0.9,1.9s0.9,0.9,1.6,1.2c0.6,0.3,1.4,0.4,2.2,0.4c0.7,0,1.2-0.1,1.7-0.2s0.9-0.3,1.2-0.5c0.3-0.2,0.6-0.4,0.9-0.6
		c0.2-0.2,0.4-0.4,0.5-0.5c0.2,0.2,0.4,0.4,0.5,0.6C150.7,31,150.7,31.1,150.7,31.2z M149.3,24.7c0-0.7-0.1-1.4-0.2-2
		c-0.1-0.6-0.3-1.2-0.7-1.6c-0.3-0.5-0.7-0.8-1.3-1.1c-0.5-0.3-1.2-0.4-2-0.4c-1.3,0-2.4,0.4-3.2,1.3c-0.8,0.9-1.2,2.1-1.3,3.8
		H149.3z"/>
	<path id="XMLID_68_" fill="#FFFFFF" d="M157,20c0.1-0.2,0.3-0.4,0.5-0.6s0.5-0.4,0.8-0.6c0.3-0.2,0.6-0.4,1-0.5
		c0.4-0.1,0.8-0.2,1.2-0.2c0.2,0,0.4,0,0.7,0c0.3,0,0.5,0.1,0.7,0.2c0.2,0.1,0.4,0.2,0.5,0.3c0.1,0.1,0.2,0.3,0.2,0.6
		c0,0.2-0.1,0.5-0.2,0.7s-0.3,0.5-0.4,0.6c-0.2-0.2-0.5-0.4-0.8-0.5c-0.3-0.1-0.7-0.2-1.2-0.2c-0.4,0-0.8,0.1-1.1,0.2
		c-0.4,0.1-0.7,0.3-1,0.6c-0.3,0.2-0.5,0.5-0.7,0.8c-0.2,0.3-0.3,0.6-0.3,0.9V33h-1.8V18.3h0.1c0.4,0,0.8,0.1,1.2,0.4
		C156.9,18.9,157,19.3,157,20z"/>
	<path id="XMLID_70_" fill="#FFFFFF" d="M170.9,33.1H169l-5.5-14.7c0.3-0.1,0.6-0.2,0.9-0.2c0.5,0,0.9,0.1,1.1,0.4
		c0.2,0.3,0.4,0.7,0.6,1.2l3.9,11.4l4.1-11.5c0.2-0.5,0.4-0.9,0.7-1.1c0.3-0.3,0.6-0.4,1-0.4c0.2,0,0.3,0,0.4,0.1
		c0.1,0,0.2,0.1,0.3,0.1L170.9,33.1z"/>
	<path id="XMLID_72_" fill="#FFFFFF" d="M181.8,14.4c0,0.4-0.1,0.7-0.4,1c-0.3,0.3-0.6,0.4-1,0.4s-0.7-0.1-1-0.4
		c-0.3-0.3-0.4-0.6-0.4-1c0-0.4,0.1-0.7,0.4-1c0.3-0.3,0.6-0.4,1-0.4s0.7,0.1,1,0.4C181.7,13.7,181.8,14,181.8,14.4z M181.8,33.2
		c-0.5,0-0.9-0.1-1.2-0.3c-0.3-0.2-0.5-0.4-0.6-0.7c-0.1-0.3-0.2-0.6-0.3-1c0-0.4,0-0.8,0-1.2V18.3h0.1c0.4,0,0.8,0.1,1.2,0.3
		c0.4,0.2,0.5,0.7,0.5,1.3V30c0,0.9,0.1,1.5,0.4,1.8c0.3,0.3,0.7,0.5,1.2,0.5V33c-0.2,0.1-0.5,0.1-0.7,0.1
		C182.2,33.2,182,33.2,181.8,33.2z"/>
	<path id="XMLID_75_" fill="#FFFFFF" d="M186.7,10.6c0.1,0,0.2,0,0.2,0c0,0,0.1,0,0.1,0c0.1,0,0.3,0,0.4,0c0.2,0,0.3,0.1,0.5,0.2
		c0.2,0.1,0.3,0.3,0.4,0.5c0.1,0.2,0.2,0.5,0.2,0.9v17.9c0,0.9,0.1,1.5,0.4,1.8c0.3,0.3,0.7,0.4,1.2,0.5V33
		c-0.2,0.1-0.5,0.1-0.7,0.1c-0.2,0-0.4,0-0.6,0c-0.5,0-0.9-0.1-1.2-0.3c-0.3-0.2-0.5-0.4-0.6-0.7c-0.1-0.3-0.2-0.6-0.3-1
		c0-0.4,0-0.8,0-1.2V10.6z"/>
	<path id="XMLID_77_" fill="#FFFFFF" d="M193.8,10.6c0.1,0,0.2,0,0.2,0s0.1,0,0.1,0c0.1,0,0.3,0,0.4,0c0.2,0,0.3,0.1,0.5,0.2
		c0.2,0.1,0.3,0.3,0.4,0.5s0.2,0.5,0.2,0.9v17.9c0,0.9,0.1,1.5,0.4,1.8c0.3,0.3,0.7,0.4,1.2,0.5V33c-0.2,0.1-0.5,0.1-0.7,0.1
		s-0.4,0-0.6,0c-0.5,0-0.9-0.1-1.2-0.3c-0.3-0.2-0.5-0.4-0.6-0.7c-0.1-0.3-0.2-0.6-0.3-1c0-0.4,0-0.8,0-1.2V10.6z"/>
	<path id="XMLID_79_" fill="#FFFFFF" d="M211.7,31.2c0,0.2-0.1,0.4-0.4,0.7c-0.2,0.3-0.6,0.5-1,0.7c-0.4,0.2-1,0.4-1.6,0.6
		c-0.6,0.2-1.3,0.3-2.1,0.3c-1,0-1.9-0.1-2.8-0.4c-0.9-0.3-1.6-0.8-2.2-1.4c-0.6-0.6-1.1-1.5-1.4-2.5c-0.3-1-0.5-2.2-0.5-3.6
		c0-1.3,0.2-2.5,0.6-3.4c0.4-1,0.9-1.7,1.5-2.4c0.6-0.6,1.3-1.1,2.1-1.4c0.8-0.3,1.6-0.4,2.4-0.4c1,0,1.9,0.2,2.7,0.5
		c0.7,0.4,1.3,0.8,1.8,1.4c0.5,0.6,0.8,1.3,1,2c0.2,0.8,0.3,1.6,0.3,2.4c0,0.5,0,1-0.1,1.6h-10.3c0,0.9,0.1,1.7,0.3,2.4
		c0.2,0.7,0.5,1.4,0.9,1.9s0.9,0.9,1.6,1.2c0.6,0.3,1.4,0.4,2.2,0.4c0.7,0,1.2-0.1,1.7-0.2c0.5-0.1,0.9-0.3,1.2-0.5
		c0.3-0.2,0.6-0.4,0.9-0.6c0.2-0.2,0.4-0.4,0.5-0.5c0.2,0.2,0.4,0.4,0.5,0.6C211.6,31,211.7,31.1,211.7,31.2z M210.3,24.7
		c0-0.7-0.1-1.4-0.2-2c-0.1-0.6-0.3-1.2-0.7-1.6c-0.3-0.5-0.7-0.8-1.3-1.1c-0.5-0.3-1.2-0.4-2-0.4c-1.3,0-2.4,0.4-3.2,1.3
		c-0.8,0.9-1.2,2.1-1.3,3.8H210.3z"/>
	<path id="XMLID_82_" fill="#FFFFFF" d="M95.6,58.9c0.2,0.2,0.4,0.4,0.6,0.6c0.2,0.2,0.3,0.4,0.3,0.6c0,0.2-0.1,0.4-0.3,0.6
		c-0.1,0.1-0.3,0.3-0.6,0.6c-0.3,0.2-0.7,0.5-1.2,0.7c-0.5,0.3-1.1,0.5-1.8,0.7C91.8,62.9,91,63,90.1,63c-1.6,0-3-0.3-4.1-0.8
		s-2.1-1.3-2.8-2.3s-1.3-2.1-1.6-3.5C81.1,55,81,53.6,81,52s0.2-3,0.6-4.4c0.4-1.3,0.9-2.5,1.7-3.5s1.7-1.7,2.9-2.3
		c1.2-0.6,2.6-0.8,4.2-0.8c0.8,0,1.6,0.1,2.3,0.3s1.2,0.4,1.7,0.6c0.5,0.2,0.9,0.5,1.1,0.7c0.3,0.2,0.5,0.4,0.6,0.5
		c0.1,0.1,0.2,0.2,0.3,0.3c0.1,0.1,0.1,0.3,0.1,0.4c0,0.2-0.2,0.6-0.6,1.1h-0.3c-0.1-0.1-0.3-0.4-0.6-0.6c-0.3-0.3-0.6-0.5-1.1-0.8
		c-0.4-0.3-0.9-0.5-1.5-0.7s-1.3-0.3-2-0.3c-1.4,0-2.6,0.3-3.5,0.8c-0.9,0.5-1.7,1.3-2.2,2.1c-0.6,0.9-0.9,1.9-1.2,3
		c-0.2,1.1-0.3,2.3-0.3,3.4c0,1.2,0.1,2.4,0.4,3.5c0.2,1.1,0.6,2.1,1.2,3c0.6,0.9,1.3,1.6,2.3,2.1c0.9,0.5,2.1,0.8,3.5,0.8
		c0.8,0,1.6-0.1,2.2-0.4c0.6-0.3,1.2-0.5,1.7-0.9C94.7,59.8,95.2,59.4,95.6,58.9z"/>
	<path id="XMLID_84_" fill="#FFFFFF" d="M112.1,55.2c0,1-0.1,2-0.4,2.9c-0.2,0.9-0.6,1.8-1.2,2.5c-0.5,0.7-1.2,1.3-2.1,1.7
		c-0.9,0.4-1.9,0.6-3.1,0.6c-1.2,0-2.2-0.2-3.1-0.6s-1.5-1-2.1-1.7c-0.5-0.7-0.9-1.5-1.2-2.4c-0.2-0.9-0.4-1.9-0.4-2.9
		c0-1,0.1-2,0.4-3c0.3-0.9,0.7-1.8,1.3-2.5c0.6-0.7,1.3-1.3,2.1-1.7c0.9-0.4,1.8-0.6,3-0.6c1.2,0,2.2,0.2,3.1,0.6
		c0.8,0.4,1.5,1,2,1.7c0.5,0.7,0.9,1.5,1.1,2.5C111.9,53.2,112.1,54.2,112.1,55.2z M110.1,55.2c0-0.7-0.1-1.4-0.2-2.2
		c-0.1-0.7-0.4-1.4-0.7-2c-0.3-0.6-0.8-1.1-1.5-1.4c-0.6-0.4-1.4-0.6-2.4-0.6c-0.9,0-1.7,0.2-2.3,0.6c-0.6,0.4-1.1,0.8-1.5,1.4
		c-0.4,0.6-0.6,1.3-0.8,2c-0.2,0.7-0.2,1.5-0.2,2.2c0,0.7,0.1,1.5,0.2,2.2s0.4,1.4,0.7,2s0.8,1.1,1.5,1.5c0.6,0.4,1.4,0.6,2.4,0.6
		c1,0,1.8-0.2,2.4-0.6s1.1-0.9,1.5-1.5c0.4-0.6,0.6-1.3,0.7-2C110.1,56.7,110.1,55.9,110.1,55.2z"/>
	<path id="XMLID_87_" fill="#FFFFFF" d="M116.3,40.1c0.1,0,0.2,0,0.2,0c0,0,0.1,0,0.1,0c0.1,0,0.3,0,0.4,0c0.2,0,0.3,0.1,0.5,0.2
		c0.2,0.1,0.3,0.3,0.4,0.5c0.1,0.2,0.2,0.5,0.2,0.9v17.9c0,0.9,0.1,1.5,0.4,1.8c0.3,0.3,0.7,0.4,1.2,0.5v0.7
		c-0.2,0.1-0.5,0.1-0.7,0.1c-0.2,0-0.4,0-0.6,0c-0.5,0-0.9-0.1-1.2-0.3c-0.3-0.2-0.5-0.4-0.6-0.7c-0.1-0.3-0.2-0.6-0.3-1
		c0-0.4,0-0.8,0-1.2V40.1z"/>
	<path id="XMLID_89_" fill="#FFFFFF" d="M123.4,40.1c0.1,0,0.2,0,0.2,0c0,0,0.1,0,0.1,0c0.1,0,0.3,0,0.4,0c0.2,0,0.3,0.1,0.5,0.2
		c0.2,0.1,0.3,0.3,0.4,0.5c0.1,0.2,0.2,0.5,0.2,0.9v17.9c0,0.9,0.1,1.5,0.4,1.8c0.3,0.3,0.7,0.4,1.2,0.5v0.7
		c-0.2,0.1-0.5,0.1-0.7,0.1c-0.2,0-0.4,0-0.6,0c-0.5,0-0.9-0.1-1.2-0.3c-0.3-0.2-0.5-0.4-0.6-0.7c-0.1-0.3-0.2-0.6-0.3-1
		c0-0.4,0-0.8,0-1.2V40.1z"/>
	<path id="XMLID_91_" fill="#FFFFFF" d="M141.3,60.7c0,0.2-0.1,0.4-0.4,0.7c-0.2,0.3-0.6,0.5-1,0.7c-0.4,0.2-1,0.4-1.6,0.6
		c-0.6,0.2-1.3,0.3-2.1,0.3c-1,0-1.9-0.1-2.8-0.4c-0.9-0.3-1.6-0.8-2.2-1.4c-0.6-0.6-1.1-1.5-1.4-2.5c-0.3-1-0.5-2.2-0.5-3.6
		c0-1.3,0.2-2.5,0.6-3.4c0.4-1,0.9-1.7,1.5-2.4c0.6-0.6,1.3-1.1,2.1-1.4c0.8-0.3,1.6-0.4,2.4-0.4c1,0,1.9,0.2,2.7,0.5
		c0.7,0.4,1.3,0.8,1.8,1.4c0.5,0.6,0.8,1.3,1,2s0.3,1.6,0.3,2.4c0,0.5,0,1-0.1,1.6h-10.3c0,0.9,0.1,1.7,0.3,2.4
		c0.2,0.7,0.5,1.4,0.9,1.9c0.4,0.5,0.9,0.9,1.6,1.2s1.4,0.4,2.2,0.4c0.7,0,1.2-0.1,1.7-0.2c0.5-0.1,0.9-0.3,1.2-0.5
		c0.3-0.2,0.6-0.4,0.9-0.6c0.2-0.2,0.4-0.4,0.5-0.5c0.2,0.2,0.4,0.4,0.5,0.6C141.3,60.4,141.3,60.6,141.3,60.7z M139.9,54.1
		c0-0.7-0.1-1.4-0.2-2c-0.1-0.6-0.3-1.2-0.7-1.6c-0.3-0.5-0.7-0.8-1.3-1.1c-0.5-0.3-1.2-0.4-2-0.4c-1.3,0-2.4,0.4-3.2,1.3
		c-0.8,0.9-1.2,2.1-1.3,3.8H139.9z"/>
	<path id="XMLID_94_" fill="#FFFFFF" d="M157.5,61.7c0,0.7,0,1.3-0.1,1.9c0,0.6-0.1,1.2-0.3,1.7c-0.3,1.4-1,2.5-2.1,3.2
		c-1.1,0.7-2.6,1.1-4.5,1.1c-1.1,0-2.1-0.1-2.9-0.4c-0.8-0.3-1.4-0.6-1.8-0.9c-0.2-0.2-0.3-0.3-0.4-0.4c-0.1-0.1-0.1-0.3-0.1-0.4
		c0-0.2,0.1-0.4,0.3-0.6s0.3-0.4,0.5-0.5c0.3,0.3,0.6,0.6,1.1,0.9c0.4,0.2,0.8,0.4,1.4,0.6c0.6,0.2,1.2,0.3,1.9,0.3
		c3,0,4.6-1.2,5-3.6c0.1-0.5,0.1-1.1,0.2-1.6c0-0.5,0-1,0-1.4V61c-0.2,0.2-0.4,0.4-0.6,0.6c-0.2,0.2-0.5,0.4-0.9,0.6
		c-0.3,0.2-0.8,0.3-1.2,0.5c-0.5,0.1-1,0.2-1.6,0.2c-0.9,0-1.7-0.1-2.5-0.4c-0.8-0.3-1.5-0.7-2.1-1.4s-1.1-1.4-1.4-2.4
		c-0.3-0.9-0.5-2.1-0.5-3.4c0-1.5,0.2-2.7,0.6-3.7c0.4-1,1-1.8,1.6-2.4s1.4-1,2.1-1.3c0.8-0.3,1.5-0.4,2.2-0.4
		c0.7,0,1.3,0.1,1.8,0.2s0.9,0.3,1.2,0.5s0.6,0.4,0.8,0.6c0.2,0.2,0.3,0.3,0.4,0.4c0-0.6,0.2-1,0.5-1.2c0.3-0.2,0.6-0.3,0.9-0.3
		c0.1,0,0.3,0,0.4,0V61.7z M147,55c0,0.9,0.1,1.7,0.3,2.4c0.2,0.7,0.4,1.4,0.8,2c0.4,0.6,0.9,1,1.5,1.3c0.6,0.3,1.3,0.5,2.2,0.5
		c0.6,0,1.1-0.1,1.6-0.2c0.5-0.2,0.9-0.4,1.2-0.6c0.3-0.2,0.6-0.5,0.8-0.8s0.3-0.5,0.3-0.8v-8c-0.1-0.1-0.3-0.3-0.5-0.5
		c-0.2-0.2-0.5-0.4-0.8-0.6s-0.7-0.4-1.1-0.5s-0.9-0.2-1.4-0.2c-1.6,0-2.8,0.5-3.6,1.5C147.4,51.5,147,53,147,55z"/>
	<path id="XMLID_97_" fill="#FFFFFF" d="M173.8,60.7c0,0.2-0.1,0.4-0.4,0.7c-0.2,0.3-0.6,0.5-1,0.7c-0.4,0.2-1,0.4-1.6,0.6
		c-0.6,0.2-1.3,0.3-2.1,0.3c-1,0-1.9-0.1-2.8-0.4c-0.9-0.3-1.6-0.8-2.2-1.4c-0.6-0.6-1.1-1.5-1.4-2.5c-0.3-1-0.5-2.2-0.5-3.6
		c0-1.3,0.2-2.5,0.6-3.4c0.4-1,0.9-1.7,1.5-2.4c0.6-0.6,1.3-1.1,2.1-1.4c0.8-0.3,1.6-0.4,2.4-0.4c1,0,1.9,0.2,2.7,0.5
		s1.3,0.8,1.8,1.4c0.5,0.6,0.8,1.3,1,2c0.2,0.8,0.3,1.6,0.3,2.4c0,0.5,0,1-0.1,1.6h-10.3c0,0.9,0.1,1.7,0.3,2.4
		c0.2,0.7,0.5,1.4,0.9,1.9c0.4,0.5,0.9,0.9,1.6,1.2c0.6,0.3,1.4,0.4,2.2,0.4c0.7,0,1.2-0.1,1.7-0.2s0.9-0.3,1.2-0.5
		c0.3-0.2,0.6-0.4,0.9-0.6c0.2-0.2,0.4-0.4,0.5-0.5c0.2,0.2,0.4,0.4,0.5,0.6C173.7,60.4,173.8,60.6,173.8,60.7z M172.4,54.1
		c0-0.7-0.1-1.4-0.2-2c-0.1-0.6-0.3-1.2-0.7-1.6c-0.3-0.5-0.7-0.8-1.3-1.1c-0.5-0.3-1.2-0.4-2-0.4c-1.3,0-2.4,0.4-3.2,1.3
		c-0.8,0.9-1.2,2.1-1.3,3.8H172.4z"/>
</g>
<g id="XMLID_57_">
</g>
<g id="XMLID_100_">
</g>
<g id="XMLID_101_">
</g>
<g id="XMLID_102_">
</g>
<g id="XMLID_103_">
</g>
<g id="XMLID_104_">
</g>
</svg>
